<svg width="32" height="32" viewBox="0 0 32 32" xmlns="http://www.w3.org/2000/svg">
  <!-- Glass bottle outline -->
  <rect x="10" y="4" width="12" height="2" fill="#E6E6E6"/>
  <rect x="11" y="6" width="10" height="2" fill="#E6E6E6"/>
  <rect x="9" y="8" width="14" height="2" fill="#E6E6E6"/>
  <rect x="8" y="10" width="16" height="18" fill="#E6E6E6"/>
  <rect x="10" y="28" width="12" height="2" fill="#E6E6E6"/>
  
  <!-- Black cola liquid -->
  <rect x="11" y="6" width="8" height="2" fill="#1A0F0A"/>
  <rect x="10" y="8" width="12" height="2" fill="#1A0F0A"/>
  <rect x="9" y="10" width="14" height="18" fill="#1A0F0A"/>
  <rect x="11" y="28" width="10" height="2" fill="#1A0F0A"/>
  
  <!-- Bubbles/fizz -->
  <rect x="12" y="12" width="2" height="2" fill="#FFFFFF"/>
  <rect x="16" y="14" width="2" height="2" fill="#FFFFFF"/>
  <rect x="18" y="18" width="2" height="2" fill="#FFFFFF"/>
  <rect x="13" y="20" width="2" height="2" fill="#FFFFFF"/>
  <rect x="17" y="22" width="2" height="2" fill="#FFFFFF"/>
  <rect x="14" y="24" width="2" height="2" fill="#FFFFFF"/>
  
  <!-- Metal bottle cap -->
  <rect x="12" y="4" width="8" height="2" fill="#C0C0C0"/>
  <rect x="13" y="2" width="6" height="2" fill="#D0D0D0"/>
  
  <!-- Red label -->
  <rect x="10" y="16" width="12" height="2" fill="#DC143C"/>
  <rect x="10" y="18" width="12" height="2" fill="#DC143C"/>
  <rect x="11" y="20" width="10" height="2" fill="#DC143C"/>
  
  <!-- Glass highlights -->
  <rect x="10" y="6" width="2" height="2" fill="#F0F0F0"/>
  <rect x="10" y="12" width="2" height="2" fill="#F0F0F0"/>
  <rect x="20" y="14" width="2" height="2" fill="#F0F0F0"/>
</svg>