<svg width="32" height="32" viewBox="0 0 32 32" xmlns="http://www.w3.org/2000/svg">
  <!-- Bottle outline -->
  <rect x="10" y="4" width="12" height="2" fill="#8B4513"/>
  <rect x="11" y="6" width="10" height="2" fill="#8B4513"/>
  <rect x="9" y="8" width="14" height="2" fill="#8B4513"/>
  <rect x="8" y="10" width="16" height="18" fill="#8B4513"/>
  <rect x="10" y="28" width="12" height="2" fill="#8B4513"/>
  
  <!-- Cola liquid -->
  <rect x="11" y="6" width="8" height="2" fill="#2F1B14"/>
  <rect x="10" y="8" width="12" height="2" fill="#2F1B14"/>
  <rect x="9" y="10" width="14" height="18" fill="#2F1B14"/>
  <rect x="11" y="28" width="10" height="2" fill="#2F1B14"/>
  
  <!-- Bubbles/fizz -->
  <rect x="12" y="12" width="2" height="2" fill="#FFFFFF"/>
  <rect x="16" y="14" width="2" height="2" fill="#FFFFFF"/>
  <rect x="18" y="18" width="2" height="2" fill="#FFFFFF"/>
  <rect x="13" y="20" width="2" height="2" fill="#FFFFFF"/>
  <rect x="17" y="22" width="2" height="2" fill="#FFFFFF"/>
  <rect x="14" y="24" width="2" height="2" fill="#FFFFFF"/>
  
  <!-- Bottle cap -->
  <rect x="12" y="4" width="8" height="2" fill="#C0C0C0"/>
  <rect x="13" y="2" width="6" height="2" fill="#C0C0C0"/>
  
  <!-- Label area highlight -->
  <rect x="10" y="16" width="12" height="2" fill="#FF0000"/>
  <rect x="10" y="18" width="12" height="2" fill="#FF0000"/>
</svg>