<svg width="16" height="16" viewBox="0 0 16 16" xmlns="http://www.w3.org/2000/svg">
  <!-- Glass bottle outline -->
  <rect x="5" y="2" width="6" height="1" fill="#E6E6E6"/>
  <rect x="4" y="3" width="8" height="1" fill="#E6E6E6"/>
  <rect x="4" y="4" width="8" height="9" fill="#E6E6E6"/>
  <rect x="5" y="13" width="6" height="1" fill="#E6E6E6"/>
  
  <!-- Black cola liquid -->
  <rect x="5" y="3" width="6" height="1" fill="#1A0F0A"/>
  <rect x="5" y="4" width="6" height="9" fill="#1A0F0A"/>
  <rect x="6" y="13" width="4" height="1" fill="#1A0F0A"/>
  
  <!-- Bubbles -->
  <rect x="6" y="6" width="1" height="1" fill="#FFFFFF"/>
  <rect x="8" y="8" width="1" height="1" fill="#FFFFFF"/>
  <rect x="7" y="10" width="1" height="1" fill="#FFFFFF"/>
  
  <!-- Metal bottle cap -->
  <rect x="6" y="2" width="4" height="1" fill="#C0C0C0"/>
  <rect x="6" y="1" width="4" height="1" fill="#D0D0D0"/>
  
  <!-- Red label -->
  <rect x="5" y="8" width="6" height="1" fill="#DC143C"/>
  <rect x="5" y="9" width="6" height="1" fill="#DC143C"/>
  
  <!-- Glass highlight -->
  <rect x="5" y="5" width="1" height="1" fill="#F0F0F0"/>
</svg>